<?xml version="1.0" encoding="UTF-8" standalone="no"?>
<svg
   width="26mm"
   height="12mm"
   viewBox="0 -11 26 12"
   version="1.1"
   id="svg6"
   sodipodi:docname="0d9e-logo.svg"
   inkscape:version="1.1.2 (0a00cf5339, 2022-02-04)"
   xmlns:inkscape="http://www.inkscape.org/namespaces/inkscape"
   xmlns:sodipodi="http://sodipodi.sourceforge.net/DTD/sodipodi-0.dtd"
   xmlns="http://www.w3.org/2000/svg"
   xmlns:svg="http://www.w3.org/2000/svg">
  <defs
     id="defs10" />
  <sodipodi:namedview
     id="namedview8"
     pagecolor="#ffffff"
     bordercolor="#666666"
     borderopacity="1.0"
     inkscape:pageshadow="2"
     inkscape:pageopacity="0.0"
     inkscape:pagecheckerboard="0"
     inkscape:document-units="mm"
     showgrid="false"
     inkscape:zoom="13.564984"
     inkscape:cx="49.133858"
     inkscape:cy="22.705519"
     inkscape:window-width="2560"
     inkscape:window-height="1374"
     inkscape:window-x="0"
     inkscape:window-y="0"
     inkscape:window-maximized="1"
     inkscape:current-layer="svg6" />
  <title
     id="title2">OpenSCAD Model</title>
  <path
     d=" M 16,-0 L 18,-0 L 18,-3.09999 L 19.5567,-3.09999 L 19.5567,-3.09761 L 19.5604,-2.98837  L 19.5666,-2.88036 L 19.5752,-2.77357 L 19.5863,-2.66801 L 19.5999,-2.56369 L 19.6159,-2.4606 L 19.6344,-2.35873  L 19.6553,-2.2581 L 19.6787,-2.15871 L 19.7046,-2.06053 L 19.733,-1.96359 L 19.7638,-1.86789 L 19.7971,-1.77385  L 19.8328,-1.68185 L 19.8711,-1.5919 L 19.9117,-1.50401 L 19.9549,-1.41818 L 20.0005,-1.33441 L 20.0486,-1.25269  L 20.0991,-1.17302 L 20.1521,-1.0954 L 20.2076,-1.01985 L 20.2655,-0.946335 L 20.3259,-0.874893 L 20.3888,-0.805496  L 20.4542,-0.738235 L 20.5221,-0.673187 L 20.5925,-0.610367 L 20.6655,-0.549759 L 20.7411,-0.491364 L 20.8192,-0.435196  L 20.8999,-0.381241 L 20.9831,-0.329514 L 21.0688,-0.279984 L 21.1571,-0.232681 L 21.248,-0.187607 L 21.3414,-0.144745  L 21.4373,-0.104095 L 21.5357,-0.0660858 L 21.6365,-0.0311279 L 21.7397,0.000778198 L 21.8452,0.0296631 L 21.9532,0.0555115  L 22.0635,0.0783081 L 22.1762,0.0980682 L 22.2913,0.114792 L 22.4088,0.128464 L 22.5286,0.139114 L 22.6509,0.146713  L 22.7755,0.151276 L 22.9025,0.152786 L 23.0064,0.152054 L 23.1086,0.149841 L 23.2092,0.146133 L 23.3081,0.140961  L 23.4054,0.134308 L 23.5011,0.12616 L 23.5951,0.116547 L 23.6874,0.105453 L 23.7782,0.0928802 L 23.8672,0.0788269  L 23.9547,0.0632935 L 24.0405,0.0462799 L 24.1246,0.0277863 L 24.206,0.00863647 L 24.2834,-0.0103302 L 24.3569,-0.0291443  L 24.4264,-0.0478058 L 24.492,-0.0662842 L 24.5536,-0.08461 L 24.6113,-0.102783 L 24.665,-0.120773 L 24.7148,-0.138611  L 24.7607,-0.156281 L 24.8026,-0.173782 L 24.8406,-0.191116 L 24.8746,-0.208298 L 24.7219,-1.1805 L 24.6865,-1.16348  L 24.6486,-1.14664 L 24.6082,-1.12994 L 24.5654,-1.11343 L 24.5201,-1.09708 L 24.4723,-1.08087 L 24.4221,-1.06485  L 24.3694,-1.04898 L 24.3143,-1.03328 L 24.2567,-1.01773 L 24.1966,-1.00235 L 24.1341,-0.987137 L 24.0691,-0.972092  L 24.0018,-0.957718 L 23.9324,-0.944489 L 23.8608,-0.932404 L 23.7871,-0.921478 L 23.7112,-0.911697 L 23.6332,-0.903076  L 23.5531,-0.895599 L 23.4709,-0.889267 L 23.3865,-0.884094 L 23.2999,-0.880066 L 23.2112,-0.877197 L 23.1204,-0.875473  L 23.0275,-0.874893 L 22.8658,-0.877975 L 22.7098,-0.887222 L 22.5594,-0.902634 L 22.4148,-0.924194 L 22.2758,-0.951935  L 22.1424,-0.985825 L 22.0148,-1.02589 L 21.8928,-1.07211 L 21.7765,-1.12451 L 21.6658,-1.18306 L 21.5608,-1.24777  L 21.4615,-1.31865 L 21.3679,-1.39569 L 21.2802,-1.47865 L 21.1986,-1.56728 L 21.1232,-1.66158 L 21.054,-1.76155  L 20.9909,-1.8672 L 20.934,-1.97852 L 20.8833,-2.09549 L 20.8387,-2.21815 L 20.8003,-2.34648 L 20.768,-2.48047  L 20.7419,-2.62015 L 20.722,-2.76549 L 20.7082,-2.91649 L 25.319,-2.91649 L 25.319,-3.3192 L 25.3148,-3.56848  L 25.3022,-3.80783 L 25.2813,-4.03723 L 25.2519,-4.25668 L 25.2142,-4.4662 L 25.1681,-4.66576 L 25.1136,-4.85539  L 25.0508,-5.03506 L 24.9795,-5.2048 L 24.8999,-5.36459 L 24.8119,-5.51443 L 24.7155,-5.65434 L 24.6107,-5.78429  L 24.4982,-5.90448 L 24.3786,-6.01506 L 24.252,-6.11603 L 24.1183,-6.20737 L 23.9776,-6.28909 L 23.8297,-6.36122  L 23.6748,-6.42372 L 23.5129,-6.47659 L 23.3438,-6.51987 L 23.1677,-6.55353 L 22.9845,-6.57756 L 22.7943,-6.59198  L 22.597,-6.59679 L 22.5096,-6.59557 L 22.4225,-6.59186 L 22.3357,-6.58569 L 22.2492,-6.57707 L 22.1631,-6.56598  L 22.0773,-6.55241 L 21.9918,-6.53639 L 21.9067,-6.51791 L 21.8219,-6.49696 L 21.7374,-6.47354 L 21.6532,-6.44765  L 21.5694,-6.41931 L 21.4859,-6.38849 L 21.4032,-6.35521 L 21.3219,-6.31947 L 21.2418,-6.28125 L 21.1631,-6.24057  L 21.0857,-6.19743 L 21.0096,-6.15182 L 20.9348,-6.10374 L 20.8614,-6.05321 L 20.7892,-6.0002 L 20.7184,-5.94472  L 20.6489,-5.88678 L 20.5807,-5.82637 L 20.5138,-5.76349 L 20.4485,-5.69809 L 20.3853,-5.63005 L 20.324,-5.55937  L 20.2646,-5.48608 L 20.2073,-5.41014 L 20.1519,-5.33159 L 20.0985,-5.2504 L 20.047,-5.16656 L 20,-5.08438  L 20,-7.89998 L 18,-7.89998 L 18,-8.5 L 17.9941,-8.63185 L 17.9763,-8.7632 L 17.9469,-8.89349  L 17.9057,-9.02225 L 17.8532,-9.14893 L 17.7893,-9.27306 L 17.7145,-9.39413 L 17.6289,-9.51167 L 17.533,-9.62523  L 17.427,-9.73434 L 17.3115,-9.83858 L 17.1869,-9.93755 L 17.0536,-10.0308 L 16.9123,-10.1181 L 16.7634,-10.1989  L 16.6075,-10.2731 L 16.4453,-10.3402 L 16.2773,-10.4001 L 16.1044,-10.4525 L 15.927,-10.4972 L 15.7461,-10.534  L 15.5621,-10.5628 L 15.376,-10.5834 L 15.1884,-10.5959 L 15,-10.6 L 14.8116,-10.5959 L 14.624,-10.5834  L 14.4379,-10.5628 L 14.2539,-10.534 L 14.0729,-10.4972 L 13.8956,-10.4525 L 13.7227,-10.4001 L 13.5547,-10.3402  L 13.3925,-10.2731 L 13.2366,-10.1989 L 13.0877,-10.1181 L 12.9464,-10.0308 L 12.8131,-9.93755 L 12.6884,-9.83858  L 12.5729,-9.73434 L 12.467,-9.62523 L 12.3711,-9.51167 L 12.2855,-9.39413 L 12.2107,-9.27306 L 12.1468,-9.14893  L 12.0942,-9.02225 L 12.0531,-8.89349 L 12.0237,-8.7632 L 12.0059,-8.63185 L 12,-8.5 L 12,-8.17377  L 11.9573,-8.14735 L 11.8303,-8.058 L 11.7137,-7.96448 L 11.6082,-7.86714 L 11.5141,-7.76639 L 11.458,-7.69569  L 11.458,-9.62439 L 10.3052,-9.42999 L 10.3052,-6.20789 L 10.2741,-6.22917 L 10.2408,-6.25031 L 10.2051,-6.27126  L 10.1671,-6.29205 L 10.1269,-6.31268 L 10.0843,-6.33315 L 10.0394,-6.35344 L 9.99228,-6.37358 L 9.94279,-6.39355  L 9.89102,-6.41336 L 9.83694,-6.433 L 9.78058,-6.45248 L 9.72189,-6.47179 L 9.66133,-6.49028 L 9.5993,-6.50729  L 9.53578,-6.52283 L 9.47078,-6.53688 L 9.40431,-6.54945 L 9.33635,-6.56055 L 9.26691,-6.57016 L 9.196,-6.57831  L 9.1236,-6.58496 L 9.04971,-6.59013 L 8.97435,-6.59383 L 8.89751,-6.59605 L 8.8192,-6.59679 L 8.71964,-6.59531  L 8.62181,-6.59088 L 8.52571,-6.58348 L 8.43134,-6.57312 L 8.33868,-6.55981 L 8.24776,-6.54353 L 8.15855,-6.52431  L 8.07109,-6.50212 L 7.98534,-6.47697 L 7.90131,-6.44887 L 7.81902,-6.4178 L 7.73843,-6.38377 L 7.65959,-6.34679  L 7.58247,-6.30717 L 7.50708,-6.26527 L 7.43341,-6.22105 L 7.36145,-6.17455 L 7.29124,-6.12573 L 7.22275,-6.07462  L 7.15598,-6.02119 L 7.09093,-5.96548 L 7.02762,-5.90747 L 6.96602,-5.84715 L 6.90616,-5.78453 L 6.84801,-5.7196  L 6.7916,-5.65239 L 6.73706,-5.58299 L 6.6846,-5.51155 L 6.63417,-5.43803 L 6.58582,-5.36247 L 6.53951,-5.28487  L 6.49525,-5.2052 L 6.45305,-5.12347 L 6.4129,-5.0397 L 6.37482,-4.95386 L 6.33878,-4.86598 L 6.30479,-4.77603  L 6.29596,-4.75055 L 6.28777,-4.94807 L 6.26599,-5.25159 L 6.2355,-5.5432 L 6.1963,-5.82288 L 6.14839,-6.09065  L 6.09177,-6.34651 L 6.02643,-6.59044 L 5.95239,-6.82246 L 5.86963,-7.04257 L 5.77817,-7.25076 L 5.67798,-7.44704  L 5.56909,-7.63139 L 5.45215,-7.80295 L 5.3278,-7.96077 L 5.19608,-8.10487 L 5.05695,-8.23526 L 4.91042,-8.35191  L 4.7565,-8.45485 L 4.59518,-8.54405 L 4.42647,-8.61954 L 4.25037,-8.6813 L 4.06686,-8.72934 L 3.87598,-8.76364  L 3.67767,-8.78423 L 3.47198,-8.79109 L 3.26833,-8.78423 L 3.07179,-8.76364 L 2.88242,-8.72934 L 2.7002,-8.6813  L 2.52512,-8.61954 L 2.35718,-8.54405 L 2.1964,-8.45485 L 2.04276,-8.35191 L 1.89627,-8.23526 L 1.75693,-8.10487  L 1.62474,-7.96077 L 1.49969,-7.80295 L 1.38179,-7.63139 L 1.27188,-7.44704 L 1.17076,-7.25076 L 1.07843,-7.04257  L 0.994904,-6.82246 L 0.920166,-6.59044 L 0.854218,-6.34651 L 0.797058,-6.09065 L 0.748703,-5.82288 L 0.709137,-5.5432  L 0.67836,-5.25159 L 0.656372,-4.94807 L 0.643188,-4.63264 L 0.638794,-4.3053 L 0.643188,-3.97794 L 0.656372,-3.66251  L 0.67836,-3.35898 L 0.709137,-3.06738 L 0.748703,-2.78769 L 0.797058,-2.51991 L 0.854218,-2.26405 L 0.920166,-2.02011  L 0.994904,-1.78807 L 1.07843,-1.56796 L 1.17076,-1.35976 L 1.27188,-1.16347 L 1.38179,-0.979095 L 1.49969,-0.807556  L 1.62474,-0.649734 L 1.75693,-0.505646 L 1.89627,-0.375275 L 2.04276,-0.258636 L 2.1964,-0.155701 L 2.35718,-0.0665131  L 2.52512,0.00895691 L 2.7002,0.0707092 L 2.88242,0.118744 L 3.07179,0.153046 L 3.26833,0.17363 L 3.47198,0.180496  L 3.67767,0.17363 L 3.87598,0.153046 L 4.06686,0.118744 L 4.25037,0.0707092 L 4.42647,0.00895691 L 4.59518,-0.0665131  L 4.7565,-0.155701 L 4.91042,-0.258636 L 5.05695,-0.375275 L 5.19608,-0.505646 L 5.3278,-0.649734 L 5.45215,-0.807556  L 5.56909,-0.979095 L 5.67798,-1.16347 L 5.77817,-1.35976 L 5.86963,-1.56796 L 5.95239,-1.78807 L 6.02643,-2.02011  L 6.09177,-2.26405 L 6.1237,-2.40837 L 6.13963,-2.32265 L 6.16199,-2.21837 L 6.18697,-2.11589 L 6.21458,-2.01521  L 6.24483,-1.91635 L 6.27769,-1.81929 L 6.31294,-1.72426 L 6.35033,-1.63145 L 6.38986,-1.54086 L 6.43152,-1.45248  L 6.47531,-1.36632 L 6.52126,-1.28238 L 6.56932,-1.20065 L 6.61952,-1.12115 L 6.67186,-1.04387 L 6.72635,-0.968796  L 6.78296,-0.89595 L 6.84171,-0.825302 L 6.90259,-0.756897 L 6.96555,-0.690781 L 7.03047,-0.627045 L 7.09737,-0.565689  L 7.16624,-0.506729 L 7.23709,-0.45015 L 7.30989,-0.39595 L 7.38467,-0.344131 L 7.46144,-0.294708 L 7.54016,-0.24765  L 7.62086,-0.202988 L 7.70354,-0.160706 L 7.78818,-0.120804 L 7.87479,-0.0832977 L 7.96315,-0.0483704 L 8.05298,-0.0162354  L 8.14429,0.013092 L 8.23708,0.0396271 L 8.33134,0.063385 L 8.42709,0.0843353 L 8.52431,0.102493 L 8.62302,0.117859  L 8.72319,0.130432 L 8.82484,0.140213 L 8.92799,0.147202 L 9.03261,0.151398 L 9.13869,0.152786 L 9.25719,0.15213  L 9.37338,0.150162 L 9.48727,0.146881 L 9.59888,0.142273 L 9.70816,0.136353 L 9.81516,0.12912 L 9.91985,0.120575  L 10.0222,0.110718 L 10.1223,0.0995483 L 10.2201,0.0870514 L 10.3156,0.0732422 L 10.4088,0.0581207 L 10.4997,0.041687  L 10.5882,0.0245972 L 10.6742,0.00750732 L 10.7578,-0.00956726 L 10.8389,-0.0266571 L 10.9176,-0.0437469 L 10.9938,-0.0608521  L 11.0675,-0.0779419 L 11.1387,-0.0950317 L 11.2075,-0.112122 L 11.2738,-0.129211 L 11.3377,-0.146301 L 11.3991,-0.163406  L 11.458,-0.180496 L 11.458,-6.30429 L 11.5141,-6.2336 L 11.6082,-6.13284 L 11.7137,-6.03551 L 11.8303,-5.94199  L 11.9573,-5.85263 L 12,-5.82622 L 12,-0 L 14,-0 L 14,-2.5 L 16,-2.5  z M 17.5683,-7.66261 L 17.4859,-7.76639 L 17.3918,-7.86714 L 17.2863,-7.96448 L 17.1697,-8.058 L 17.0427,-8.14735  L 16.9056,-8.23218 L 16.759,-8.31213 L 16.6035,-8.38692 L 16.4397,-8.45622 L 16.2682,-8.51978 L 16.0898,-8.57733  L 15.9051,-8.62868 L 15.7148,-8.67358 L 15.5197,-8.7119 L 15.3207,-8.74344 L 15.1183,-8.76811 L 14.9136,-8.7858  L 14.7072,-8.79645 L 14.5,-8.79999 L 14.2928,-8.79645 L 14.0864,-8.7858 L 13.8817,-8.76811 L 13.6793,-8.74344  L 13.4802,-8.7119 L 13.2852,-8.67358 L 13.0949,-8.62868 L 12.9102,-8.57733 L 12.7318,-8.51978 L 12.5603,-8.45622  L 12.4,-8.3884 L 12.4,-8.5 L 12.4051,-8.61427 L 12.4205,-8.7281 L 12.446,-8.84103 L 12.4817,-8.95261  L 12.5273,-9.06241 L 12.5826,-9.16998 L 12.6474,-9.27492 L 12.7216,-9.37679 L 12.8047,-9.4752 L 12.8965,-9.56976  L 12.9967,-9.66011 L 13.1047,-9.74586 L 13.2202,-9.82672 L 13.3427,-9.90233 L 13.4718,-9.9724 L 13.6068,-10.0367  L 13.7474,-10.0949 L 13.893,-10.1468 L 14.0429,-10.1922 L 14.1965,-10.2309 L 14.3534,-10.2628 L 14.5128,-10.2878  L 14.6741,-10.3056 L 14.8367,-10.3164 L 15,-10.32 L 15.1633,-10.3164 L 15.3259,-10.3056 L 15.4872,-10.2878  L 15.6466,-10.2628 L 15.8034,-10.2309 L 15.9571,-10.1922 L 16.107,-10.1468 L 16.2525,-10.0949 L 16.3931,-10.0367  L 16.5282,-9.9724 L 16.6573,-9.90233 L 16.7798,-9.82672 L 16.8953,-9.74586 L 17.0033,-9.66011 L 17.1034,-9.56976  L 17.1953,-9.4752 L 17.2784,-9.37679 L 17.3525,-9.27492 L 17.4174,-9.16998 L 17.4727,-9.06241 L 17.5183,-8.95261  L 17.5539,-8.84103 L 17.5795,-8.7281 L 17.5949,-8.61427 L 17.6,-8.5 L 17.6,-7.61453 z M 14.4033,-6.16165 L 14.307,-6.16663 L 14.2114,-6.17488 L 14.117,-6.18639 L 14.0241,-6.20111 L 13.9331,-6.21898  L 13.8443,-6.23994 L 13.7581,-6.2639 L 13.6748,-6.29076 L 13.5948,-6.32042 L 13.5184,-6.35277 L 13.4458,-6.38766  L 13.3774,-6.42497 L 13.3134,-6.46457 L 13.2541,-6.50626 L 13.1997,-6.5499 L 13.1505,-6.59532 L 13.1066,-6.64235  L 13.0681,-6.69078 L 13.0354,-6.74042 L 13.0084,-6.79109 L 12.9873,-6.84259 L 12.9722,-6.89471 L 12.963,-6.94725  L 12.96,-7 L 12.963,-7.05273 L 12.9722,-7.10527 L 12.9873,-7.15739 L 13.0084,-7.20889 L 13.0354,-7.25957  L 13.0681,-7.30922 L 13.1066,-7.35765 L 13.1505,-7.40466 L 13.1997,-7.45009 L 13.2541,-7.49373 L 13.3134,-7.53542  L 13.3774,-7.57501 L 13.4458,-7.61232 L 13.5184,-7.64722 L 13.5948,-7.67957 L 13.6748,-7.70923 L 13.7581,-7.73608  L 13.8443,-7.76004 L 13.9331,-7.78101 L 14.0241,-7.79887 L 14.117,-7.8136 L 14.2114,-7.82512 L 14.307,-7.83336  L 14.4033,-7.83833 L 14.5,-7.84 L 14.5967,-7.83833 L 14.693,-7.83336 L 14.7886,-7.82512 L 14.883,-7.8136  L 14.9759,-7.79887 L 15.0669,-7.78101 L 15.1557,-7.76004 L 15.2419,-7.73608 L 15.3252,-7.70923 L 15.4052,-7.67957  L 15.4816,-7.64722 L 15.5542,-7.61232 L 15.6226,-7.57501 L 15.6866,-7.53542 L 15.7459,-7.49373 L 15.8002,-7.45009  L 15.8495,-7.40466 L 15.8934,-7.35765 L 15.9318,-7.30922 L 15.9646,-7.25957 L 15.9916,-7.20889 L 16.0127,-7.15739  L 16.0278,-7.10527 L 16.0369,-7.05273 L 16.04,-7 L 16.0369,-6.94725 L 16.0278,-6.89471 L 16.0127,-6.84259  L 15.9916,-6.79109 L 15.9646,-6.74042 L 15.9318,-6.69078 L 15.8934,-6.64235 L 15.8495,-6.59532 L 15.8002,-6.5499  L 15.7459,-6.50626 L 15.6866,-6.46457 L 15.6226,-6.42497 L 15.5542,-6.38766 L 15.4816,-6.35277 L 15.4052,-6.32042  L 15.3252,-6.29076 L 15.2419,-6.2639 L 15.1557,-6.23994 L 15.0669,-6.21898 L 14.9759,-6.20111 L 14.883,-6.18639  L 14.7886,-6.17488 L 14.693,-6.16663 L 14.5967,-6.16165 L 14.5,-6.16 z M 3.40025,-0.83493 L 3.33032,-0.839859 L 3.26219,-0.848083 L 3.19588,-0.859589 L 3.13136,-0.874374 L 3.06866,-0.892441  L 3.00777,-0.913803 L 2.94868,-0.938461 L 2.89142,-0.966385 L 2.83594,-0.997604 L 2.78229,-1.03212 L 2.73044,-1.06992  L 2.68039,-1.11099 L 2.63199,-1.15488 L 2.58507,-1.20107 L 2.53963,-1.24956 L 2.49567,-1.30035 L 2.45317,-1.35344  L 2.41217,-1.40883 L 2.37263,-1.46652 L 2.33458,-1.52652 L 2.298,-1.58881 L 2.26291,-1.65341 L 2.22929,-1.72031  L 2.19716,-1.78949 L 2.16649,-1.86099 L 2.13724,-1.93459 L 2.1093,-2.01007 L 2.08269,-2.08743 L 2.05737,-2.1667  L 2.03337,-2.24785 L 2.0107,-2.33089 L 1.98932,-2.41582 L 1.96927,-2.50264 L 1.95053,-2.59135 L 1.93309,-2.68195  L 1.91698,-2.77444 L 1.90218,-2.86882 L 1.88869,-2.96509 L 1.87637,-3.06276 L 1.86504,-3.16133 L 1.85468,-3.2608  L 1.84532,-3.36119 L 1.83694,-3.46248 L 1.82954,-3.56467 L 1.82314,-3.66776 L 1.81772,-3.77174 L 1.81328,-3.87665  L 1.80983,-3.98245 L 1.80736,-4.08916 L 1.80588,-4.19678 L 1.80539,-4.3053 L 1.80588,-4.4138 L 1.80736,-4.52142  L 1.80983,-4.62813 L 1.81328,-4.73393 L 1.81772,-4.83884 L 1.82314,-4.94284 L 1.82954,-5.04593 L 1.83694,-5.14812  L 1.84532,-5.2494 L 1.85468,-5.34978 L 1.86504,-5.44925 L 1.87637,-5.54782 L 1.88869,-5.64549 L 1.90218,-5.74176  L 1.91698,-5.83614 L 1.93309,-5.92863 L 1.95053,-6.01924 L 1.96927,-6.10794 L 1.98932,-6.19476 L 2.0107,-6.27969  L 2.03337,-6.36273 L 2.05737,-6.44389 L 2.08269,-6.52315 L 2.1093,-6.60052 L 2.13724,-6.67599 L 2.16649,-6.74959  L 2.19716,-6.82109 L 2.22929,-6.89027 L 2.26291,-6.95717 L 2.298,-7.02176 L 2.33458,-7.08405 L 2.37263,-7.14404  L 2.41217,-7.20172 L 2.45317,-7.25711 L 2.49567,-7.31018 L 2.53963,-7.36096 L 2.58507,-7.40944 L 2.63199,-7.45561  L 2.68039,-7.4995 L 2.73044,-7.54059 L 2.78229,-7.5784 L 2.83594,-7.61292 L 2.89142,-7.64415 L 2.94868,-7.67209  L 3.00777,-7.69675 L 3.06866,-7.71811 L 3.13136,-7.73619 L 3.19588,-7.75099 L 3.26219,-7.7625 L 3.33032,-7.77072  L 3.40025,-7.77565 L 3.47198,-7.7773 L 3.54373,-7.77565 L 3.61366,-7.77072 L 3.68179,-7.7625 L 3.74811,-7.75099  L 3.81262,-7.73619 L 3.87532,-7.71811 L 3.93622,-7.69675 L 3.9953,-7.67209 L 4.05257,-7.64415 L 4.10803,-7.61292  L 4.1617,-7.5784 L 4.21355,-7.54059 L 4.2636,-7.4995 L 4.312,-7.45561 L 4.35892,-7.40944 L 4.40436,-7.36096  L 4.44832,-7.31018 L 4.4908,-7.25711 L 4.5318,-7.20172 L 4.57132,-7.14404 L 4.60936,-7.08405 L 4.64592,-7.02176  L 4.68102,-6.95717 L 4.71461,-6.89027 L 4.74675,-6.82109 L 4.77739,-6.74959 L 4.80666,-6.67599 L 4.83461,-6.60052  L 4.86124,-6.52315 L 4.88655,-6.44389 L 4.91055,-6.36273 L 4.93324,-6.27969 L 4.95461,-6.19476 L 4.97467,-6.10794  L 4.99341,-6.01924 L 5.01082,-5.92863 L 5.02693,-5.83614 L 5.04172,-5.74176 L 5.05519,-5.64549 L 5.06754,-5.54782  L 5.07887,-5.44925 L 5.08925,-5.34978 L 5.09862,-5.2494 L 5.10701,-5.14812 L 5.11441,-5.04593 L 5.12082,-4.94284  L 5.12625,-4.83884 L 5.13069,-4.73393 L 5.13416,-4.62813 L 5.13661,-4.52142 L 5.13809,-4.4138 L 5.1386,-4.3053  L 5.13809,-4.19678 L 5.13661,-4.08916 L 5.13416,-3.98245 L 5.13069,-3.87665 L 5.12625,-3.77174 L 5.12082,-3.66776  L 5.11441,-3.56467 L 5.10701,-3.46248 L 5.09862,-3.36119 L 5.08925,-3.2608 L 5.07887,-3.16133 L 5.06754,-3.06276  L 5.05519,-2.96509 L 5.04172,-2.86882 L 5.02693,-2.77444 L 5.01082,-2.68195 L 4.99341,-2.59135 L 4.97467,-2.50264  L 4.95461,-2.41582 L 4.93324,-2.33089 L 4.91055,-2.24785 L 4.88655,-2.1667 L 4.86124,-2.08743 L 4.83461,-2.01007  L 4.80666,-1.93459 L 4.77739,-1.86099 L 4.74675,-1.78949 L 4.71461,-1.72031 L 4.68102,-1.65341 L 4.64592,-1.58881  L 4.60936,-1.52652 L 4.57132,-1.46652 L 4.5318,-1.40883 L 4.4908,-1.35344 L 4.44832,-1.30035 L 4.40436,-1.24956  L 4.35892,-1.20107 L 4.312,-1.15488 L 4.2636,-1.11099 L 4.21355,-1.06992 L 4.1617,-1.03212 L 4.10803,-0.997604  L 4.05257,-0.966385 L 3.9953,-0.938461 L 3.93622,-0.913803 L 3.87532,-0.892441 L 3.81262,-0.874374 L 3.74811,-0.859589  L 3.68179,-0.848083 L 3.61366,-0.839859 L 3.54373,-0.83493 L 3.47198,-0.833298 z M 3.55243,-3.57076 L 3.6035,-3.57544 L 3.65302,-3.58325 L 3.70096,-3.59418 L 3.74734,-3.60823 L 3.79216,-3.62541  L 3.83543,-3.64571 L 3.87712,-3.66913 L 3.91727,-3.69568 L 3.95584,-3.72534 L 3.99286,-3.75813 L 4.02831,-3.79405  L 4.06219,-3.8331 L 4.09404,-3.87427 L 4.12334,-3.9166 L 4.1501,-3.96007 L 4.1743,-4.00468 L 4.19595,-4.05046  L 4.21507,-4.09738 L 4.23163,-4.14545 L 4.24564,-4.19466 L 4.25711,-4.24503 L 4.26602,-4.29655 L 4.2724,-4.34921  L 4.27621,-4.40303 L 4.2775,-4.45799 L 4.27621,-4.51305 L 4.2724,-4.56712 L 4.26602,-4.62022 L 4.25711,-4.67232  L 4.24564,-4.72343 L 4.23163,-4.77357 L 4.21507,-4.82272 L 4.19595,-4.87088 L 4.1743,-4.91805 L 4.1501,-4.96423  L 4.12334,-5.00945 L 4.09404,-5.05367 L 4.06219,-5.09689 L 4.02831,-5.13799 L 3.99286,-5.1758 L 3.95584,-5.21031  L 3.91727,-5.24155 L 3.87712,-5.26949 L 3.83543,-5.29414 L 3.79216,-5.31552 L 3.74734,-5.3336 L 3.70096,-5.34839  L 3.65302,-5.35989 L 3.6035,-5.36812 L 3.55243,-5.37305 L 3.49979,-5.37469 L 3.44505,-5.37305 L 3.39197,-5.36812  L 3.34053,-5.35989 L 3.29073,-5.34839 L 3.24257,-5.3336 L 3.19606,-5.31552 L 3.15118,-5.29414 L 3.10796,-5.26949  L 3.06638,-5.24155 L 3.02644,-5.21031 L 2.98814,-5.1758 L 2.95149,-5.13799 L 2.91649,-5.09689 L 2.88362,-5.05367  L 2.85338,-5.00945 L 2.82578,-4.96423 L 2.8008,-4.91805 L 2.77844,-4.87088 L 2.75871,-4.82272 L 2.74162,-4.77357  L 2.72716,-4.72343 L 2.71533,-4.67232 L 2.70613,-4.62022 L 2.69955,-4.56712 L 2.6956,-4.51305 L 2.69429,-4.45799  L 2.6956,-4.40303 L 2.69955,-4.34921 L 2.70613,-4.29655 L 2.71533,-4.24503 L 2.72716,-4.19466 L 2.74162,-4.14545  L 2.75871,-4.09738 L 2.77844,-4.05046 L 2.8008,-4.00468 L 2.82578,-3.96007 L 2.85338,-3.9166 L 2.88362,-3.87427  L 2.91649,-3.8331 L 2.95149,-3.79405 L 2.98814,-3.75813 L 3.02644,-3.72534 L 3.06638,-3.69568 L 3.10796,-3.66913  L 3.15118,-3.64571 L 3.19606,-3.62541 L 3.24257,-3.60823 L 3.29073,-3.59418 L 3.34053,-3.58325 L 3.39197,-3.57544  L 3.44505,-3.57076 L 3.49979,-3.5692 z M 17.8,-3.5 L 17.8,-7 L 17.7935,-7.11302 L 17.774,-7.22559 L 17.7415,-7.33728 L 17.6963,-7.44763  L 17.6684,-7.5 L 19.6,-7.49998 L 19.6,-3.87511 L 19.5945,-3.83759 L 19.5805,-3.71695 L 19.5695,-3.59369  L 19.5637,-3.49998 z M 20.736,-3.84698 L 20.743,-3.89819 L 20.7511,-3.94922 L 20.7604,-4.00008 L 20.7708,-4.05078 L 20.7824,-4.10132  L 20.7952,-4.15169 L 20.8091,-4.2019 L 20.8241,-4.25194 L 20.8403,-4.30182 L 20.8576,-4.35153 L 20.8761,-4.40109  L 20.8957,-4.45047 L 20.9165,-4.49969 L 20.9384,-4.54842 L 20.9615,-4.59633 L 20.9858,-4.64342 L 21.0112,-4.68968  L 21.0377,-4.73512 L 21.0654,-4.77974 L 21.0943,-4.82353 L 21.1243,-4.86652 L 21.1554,-4.90868 L 21.1877,-4.95001  L 21.2211,-4.99052 L 21.2557,-5.03023 L 21.2915,-5.06909 L 21.3284,-5.10698 L 21.3663,-5.14371 L 21.4053,-5.17929  L 21.4453,-5.21373 L 21.4865,-5.24701 L 21.5287,-5.27913 L 21.5719,-5.3101 L 21.6163,-5.33994 L 21.6617,-5.36861  L 21.7082,-5.39613 L 21.7557,-5.4225 L 21.8043,-5.44772 L 21.854,-5.47179 L 21.9047,-5.4944 L 21.9562,-5.5152  L 22.0087,-5.53418 L 22.0621,-5.55136 L 22.1164,-5.56673 L 22.1715,-5.58029 L 22.2276,-5.59204 L 22.2846,-5.60199  L 22.3425,-5.61012 L 22.4013,-5.61646 L 22.461,-5.62097 L 22.5216,-5.62369 L 22.5831,-5.62459 L 22.6904,-5.62175  L 22.7944,-5.61325 L 22.8952,-5.59908 L 22.9927,-5.57924 L 23.0868,-5.55373 L 23.1777,-5.52254 L 23.2653,-5.48569  L 23.3496,-5.44316 L 23.4307,-5.39496 L 23.5084,-5.34109 L 23.5829,-5.28157 L 23.654,-5.21637 L 23.7219,-5.14549  L 23.7856,-5.06978 L 23.8442,-4.99002 L 23.8977,-4.90625 L 23.9461,-4.81845 L 23.9894,-4.72661 L 24.0276,-4.63075  L 24.0607,-4.53087 L 24.0887,-4.42696 L 24.1116,-4.31902 L 24.1295,-4.20706 L 24.1422,-4.09106 L 24.1498,-3.97104  L 24.1524,-3.84698 z M 9.01024,-0.87851 L 8.88557,-0.889359 L 8.76468,-0.90744 L 8.64758,-0.932755 L 8.53426,-0.965286 L 8.4247,-1.00507  L 8.31892,-1.05208 L 8.21693,-1.10631 L 8.11873,-1.16779 L 8.02431,-1.2365 L 7.93365,-1.31242 L 7.84679,-1.3956  L 7.76369,-1.48599 L 7.68562,-1.58305 L 7.61382,-1.68619 L 7.54825,-1.79539 L 7.48891,-1.91069 L 7.43584,-2.03207  L 7.38899,-2.15953 L 7.3484,-2.29308 L 7.31406,-2.43269 L 7.28595,-2.57838 L 7.2641,-2.73016 L 7.24849,-2.88803  L 7.23912,-3.05197 L 7.23599,-3.22198 L 7.23657,-3.29854 L 7.2383,-3.37436 L 7.24117,-3.44943 L 7.24519,-3.52376  L 7.25037,-3.59735 L 7.2567,-3.6702 L 7.26418,-3.74231 L 7.2728,-3.81367 L 7.28258,-3.88429 L 7.2935,-3.95418  L 7.30559,-4.02333 L 7.31882,-4.09174 L 7.33319,-4.15939 L 7.3488,-4.22597 L 7.36572,-4.29105 L 7.38397,-4.35466  L 7.40352,-4.41679 L 7.42439,-4.47743 L 7.44658,-4.53661 L 7.47008,-4.5943 L 7.4949,-4.65051 L 7.52103,-4.70525  L 7.54848,-4.7585 L 7.57722,-4.81029 L 7.6073,-4.86058 L 7.63869,-4.90939 L 7.67145,-4.9567 L 7.70561,-5.00243  L 7.74115,-5.0466 L 7.77811,-5.0892 L 7.81644,-5.13025 L 7.85617,-5.16974 L 7.89731,-5.20766 L 7.93983,-5.24402  L 7.98375,-5.27882 L 8.02907,-5.31206 L 8.07579,-5.34373 L 8.12389,-5.37384 L 8.17339,-5.40239 L 8.2244,-5.42911  L 8.27695,-5.45369 L 8.33107,-5.47614 L 8.38673,-5.49643 L 8.44398,-5.5146 L 8.50278,-5.53062 L 8.56314,-5.54453  L 8.62506,-5.55627 L 8.68855,-5.56589 L 8.7536,-5.57338 L 8.82021,-5.57872 L 8.88837,-5.58192 L 8.9581,-5.58299  L 9.0199,-5.58205 L 9.08138,-5.57921 L 9.14252,-5.57449 L 9.20332,-5.56787 L 9.26381,-5.55937 L 9.32396,-5.54898  L 9.38379,-5.53668 L 9.44328,-5.52251 L 9.50244,-5.50645 L 9.56128,-5.48849 L 9.61978,-5.46866 L 9.67795,-5.44691  L 9.73579,-5.42329 L 9.79242,-5.39861 L 9.84691,-5.37366 L 9.89925,-5.34846 L 9.94946,-5.32304 L 9.99754,-5.29735  L 10.0435,-5.27142 L 10.0873,-5.24525 L 10.1289,-5.21883 L 10.1685,-5.19215 L 10.2059,-5.16524 L 10.2411,-5.13806  L 10.2742,-5.11066 L 10.3052,-5.08299 L 10.3052,-0.999893 L 10.2829,-0.993484 L 10.2587,-0.987091 L 10.2326,-0.980682  L 10.2047,-0.974289 L 10.1748,-0.96788 L 10.143,-0.961472 L 10.1094,-0.955063 L 10.0739,-0.948654 L 10.0364,-0.942245  L 9.9971,-0.935837 L 9.95589,-0.929428 L 9.91278,-0.923004 L 9.8678,-0.916595 L 9.82108,-0.910431 L 9.7728,-0.904755  L 9.72295,-0.899567 L 9.67155,-0.894882 L 9.61859,-0.890686 L 9.56407,-0.886978 L 9.50798,-0.883774 L 9.45033,-0.881058  L 9.39113,-0.878845 L 9.33037,-0.877106 L 9.26804,-0.875885 L 9.20415,-0.875137 L 9.13869,-0.874893 z M 12.4,-0.399994 L 12.4,-5.61159 L 12.5603,-5.54376 L 12.7318,-5.48021 L 12.9102,-5.42265 L 13.0949,-5.37131  L 13.2852,-5.3264 L 13.4802,-5.2881 L 13.6793,-5.25655 L 13.8817,-5.23189 L 14.0864,-5.21419 L 14.2928,-5.20355  L 14.5,-5.2 L 14.7072,-5.20355 L 14.9136,-5.21419 L 15.1183,-5.23189 L 15.3207,-5.25655 L 15.5197,-5.2881  L 15.7148,-5.3264 L 15.9051,-5.37131 L 16.0898,-5.42265 L 16.2,-5.45821 L 16.2,-2.89999 L 13.6,-2.89999  L 13.6,-0.399994 z "
     stroke="black"
     fill="lightgray"
     stroke-width="0.5"
     id="path4"
     style="fill:#000000" />
</svg>
